<svg width="146" height="146" viewBox="0 0 146 146" fill="none" xmlns="http://www.w3.org/2000/svg">
<circle cx="72.9999" cy="72.9296" r="72.9296" fill="#8DC63F"/>
<path d="M57.1757 95.5148V88.6962C57.3418 88.0942 57.8607 87.2951 58.7325 86.2987C59.6251 85.2816 60.7044 84.1711 61.9706 82.9672C63.2575 81.7633 64.5964 80.549 65.9871 79.3244C67.3778 78.0997 68.6751 76.9684 69.879 75.9306C71.332 74.6644 72.7539 73.3463 74.1446 71.9764C75.5353 70.6064 76.6874 69.1638 77.6007 67.6485C78.514 66.1332 78.9706 64.5246 78.9706 62.8225C78.9706 60.56 78.4309 58.7853 77.3516 57.4983C76.2722 56.1906 74.622 55.5368 72.401 55.5368C70.5952 55.5368 69.1629 55.9312 68.1043 56.7199C67.0457 57.4879 66.2881 58.5673 65.8314 59.958C65.3748 61.3487 65.1464 62.9678 65.1464 64.8152H56.8955C56.8955 61.5978 57.4871 58.806 58.6702 56.4397C59.8534 54.0526 61.6074 52.2053 63.9321 50.8976C66.2569 49.5899 69.111 48.936 72.4944 48.936C75.7533 48.936 78.4725 49.5484 80.6519 50.773C82.8314 51.9769 84.4609 53.6375 85.5402 55.7547C86.6404 57.8512 87.1904 60.2279 87.1904 62.8848C87.1904 64.6906 86.8479 66.3927 86.1629 67.991C85.4987 69.5685 84.6269 71.0423 83.5476 72.4123C82.4682 73.7822 81.3162 75.038 80.0915 76.1797C78.8668 77.3213 77.6941 78.3591 76.5732 79.2932C74.7466 80.7877 73.1171 82.1681 71.6849 83.4342C70.2734 84.6797 69.1214 85.7694 68.2289 86.7035C67.3571 87.6375 66.8174 88.4056 66.6098 89.0075H87.1281V95.5148H57.1757Z" fill="white"/>
</svg>
