<svg width="146" height="146" viewBox="0 0 146 146" fill="none" xmlns="http://www.w3.org/2000/svg">
<circle cx="72.9999" cy="72.9296" r="72.9296" fill="#8DC63F"/>
<path d="M81.1576 73.3225C82.9842 73.3848 84.5098 73.8933 85.7345 74.8482C86.9799 75.803 87.9244 77.0795 88.5678 78.6778C89.2113 80.2554 89.533 82.0197 89.533 83.9709C89.533 86.5655 89.0037 88.9422 87.9451 91.1009C86.9073 93.2596 85.2882 94.9825 83.088 96.2694C80.8877 97.5564 78.0751 98.1998 74.6502 98.1998C71.7442 98.1998 69.3157 97.8262 67.3645 97.0789C65.4133 96.3109 63.8566 95.2419 62.6942 93.872C61.5318 92.4813 60.6911 90.8622 60.1722 89.0148C59.6533 87.1675 59.3938 85.1748 59.3938 83.0368C59.3938 83.016 59.3938 82.9953 59.3938 82.9745C59.3938 82.9538 59.3938 82.933 59.3938 82.9123H67.6136C67.6136 82.933 67.6136 82.9538 67.6136 82.9745C67.6136 82.9953 67.6136 83.016 67.6136 83.0368C67.6136 85.2993 67.9042 87.0533 68.4854 88.2987C69.0666 89.5441 69.8865 90.4159 70.9451 90.9141C72.0037 91.4123 73.2699 91.6614 74.7436 91.6614C76.7156 91.6614 78.2931 91.0386 79.4762 89.7932C80.6801 88.527 81.2821 86.5136 81.2821 83.7529C81.2821 82.6943 81.1679 81.7291 80.9396 80.8573C80.7113 79.9648 80.3169 79.2071 79.7565 78.5844C79.2168 77.9409 78.4799 77.4428 77.5458 77.0899C76.6118 76.737 75.4286 76.5606 73.9964 76.5606H72.3773V70.5826H73.9964C75.4079 70.5826 76.5806 70.3958 77.5147 70.0221C78.4488 69.6485 79.1856 69.1503 79.7253 68.5276C80.2858 67.8842 80.6801 67.1577 80.9085 66.3481C81.1576 65.5386 81.2821 64.698 81.2821 63.8262C81.2821 61.6259 80.6905 60.0276 79.5074 59.0313C78.345 58.0349 76.7986 57.5368 74.8682 57.5368C72.7302 57.5368 70.9866 58.118 69.6374 59.2804C68.2882 60.4428 67.6136 62.5392 67.6136 65.5698H59.3938C59.3938 63.5356 59.6844 61.6363 60.2656 59.8719C60.8675 58.1076 61.7809 56.5612 63.0055 55.2327C64.2302 53.8835 65.8077 52.8353 67.7381 52.088C69.6893 51.32 72.0141 50.936 74.7125 50.936C78.1582 50.936 80.9604 51.5172 83.1191 52.6796C85.2986 53.842 86.9073 55.378 87.9451 57.2877C89.0037 59.1766 89.533 61.2108 89.533 63.3903C89.533 65.1339 89.2113 66.7425 88.5678 68.2163C87.9244 69.69 86.9799 70.8939 85.7345 71.828C84.5098 72.7413 82.9842 73.2395 81.1576 73.3225Z" fill="white"/>
</svg>
