<svg width="114" height="43" viewBox="0 0 114 43" fill="none" xmlns="http://www.w3.org/2000/svg">
<path fill-rule="evenodd" clip-rule="evenodd" d="M14.5984 14.2331C14.6014 14.2646 14.6078 14.256 14.5764 14.256V14.2789C14.5795 14.3104 14.5858 14.3018 14.5545 14.3018V14.3247C14.5575 14.3561 14.5638 14.3476 14.5325 14.3476V14.3705C14.5371 14.4468 14.5402 14.3992 14.5105 14.4163V14.4392C14.5136 14.4706 14.5199 14.4621 14.4887 14.4621V14.485C14.4931 14.5613 14.4963 14.5137 14.4667 14.5307V14.5537C14.4712 14.63 14.4744 14.5824 14.4447 14.5994V14.6452C14.4476 14.6766 14.4541 14.6681 14.4228 14.6681V14.7368C14.4257 14.7682 14.4321 14.7597 14.4008 14.7597V14.8512C14.4037 14.8826 14.4101 14.8741 14.3788 14.8741C14.3788 15.3577 14.3476 15.5659 14.4889 16.0417C14.7497 16.9204 15.3477 17.8585 15.7933 18.618C16.4225 19.6906 17.1246 20.7254 17.553 22.0467C18.2437 24.1767 17.6492 26.4595 16.4705 28.197C16.1604 28.6543 15.6937 29.2533 15.3025 29.5993C15.3025 29.958 15.3997 30.9688 15.4329 31.4197L15.5002 32.3334C15.5078 32.6437 15.5514 32.9357 15.5662 33.2485L15.7755 35.4786C15.8063 35.7063 15.9052 36.7257 15.9388 36.792L16.3617 35.6785C16.6686 34.9471 17.0433 34.3182 17.4327 33.6623C18.0938 32.5482 18.9019 31.5366 19.6852 30.5199C19.8043 30.3654 19.917 30.2436 20.0396 30.0894C20.2696 29.8001 20.496 29.5384 20.7307 29.2307C22.1459 27.3763 23.3539 24.8104 22.4044 22.2707C22.2532 21.8661 22.08 21.5619 21.8779 21.242C21.6134 20.8231 21.4096 20.7138 21.2063 20.3635C20.8795 19.8004 20.2814 18.4177 21.4023 18.3557C22.1951 18.3119 23.2512 18.617 23.9617 18.8164C25.9714 19.3807 28.5254 20.5512 30.2589 21.6771C30.5864 21.8897 30.8644 22.0842 31.1736 22.3027C31.4884 22.5252 31.7468 22.7586 32.0283 22.9903C32.5324 23.4052 33.0841 24.0983 33.4126 24.6818C33.9742 25.6793 34.0333 27.0262 34.0842 27.1239L34.3622 26.5367C34.4152 26.427 34.4512 26.3268 34.501 26.2238C34.5529 26.1167 34.5934 26.036 34.642 25.9132C34.7434 25.6569 34.9479 25.2606 35.0527 24.9915C35.0888 24.899 35.1408 24.7741 35.1885 24.6754C35.3138 24.4162 36.1963 22.2701 36.2046 22.1279C36.2045 21.5864 36.1626 20.9418 36.0303 20.4419C35.9111 19.9911 35.6847 19.5822 35.3773 19.2691C34.075 17.943 31.8588 17.7421 30.2021 17.2298C29.7987 17.105 27.8211 16.4311 27.6114 16.2418C27.1901 16.1127 25.558 15.1987 25.1888 14.975C25.0752 14.9061 23.0084 13.6133 22.9557 13.5492C22.822 13.497 22.5841 13.34 22.4493 13.2561C22.2943 13.1597 22.1217 13.0716 21.9605 12.9866C20.1206 12.0162 17.962 11.4 16.1024 12.6646C15.5845 13.0168 14.833 13.6437 14.5982 14.2333L14.5984 14.2331Z" fill="#89163B"/>
<path fill-rule="evenodd" clip-rule="evenodd" d="M15.9384 36.7916C15.9384 37.3059 16.3906 39.4595 16.5232 39.9382C16.7524 40.7658 17.1125 41.8336 17.7101 42.4532C17.8858 42.6354 18.1834 42.8793 18.4458 42.9445C18.7476 43.0194 19.2427 42.9965 19.6119 42.9965C19.4697 42.6497 19.2697 42.5141 19.276 41.806C19.2848 40.8239 20.0973 39.3608 20.5426 38.5296C20.7018 38.2324 22.4595 35.197 22.7903 34.8082C22.8247 34.7677 22.7933 34.7974 22.8335 34.7642C23.2449 34.1462 23.6461 33.5336 24.0659 32.9135C24.4849 32.2945 24.9042 31.7062 25.326 31.0712C25.6954 30.515 26.555 29.3006 26.8304 28.7046C27.0962 28.1291 27.1472 27.7961 27.5486 27.0515C27.743 26.6912 27.9547 26.3792 28.2149 26.1666C28.6011 25.8511 28.9643 26.0115 29.3119 26.2572C29.8605 26.6447 30.3117 27.2764 30.601 28.0943C31.136 29.6064 31.0275 31.3829 30.7464 32.9708C30.7075 33.191 30.6466 33.4205 30.615 33.6375C30.7476 33.5421 32.2128 30.896 32.431 30.4722L33.879 27.566C33.9529 27.4117 34.0262 27.2821 34.0838 27.1235C34.0329 27.0258 33.9738 25.6789 33.4122 24.6814C33.0836 24.0979 32.532 23.4049 32.0279 22.9899C31.7463 22.7581 31.4879 22.5248 31.1731 22.3023C30.8639 22.0838 30.5859 21.8893 30.2584 21.6767C28.5249 20.5508 25.971 19.3803 23.9613 18.816C23.2507 18.6165 22.1947 18.3115 21.4018 18.3553C20.281 18.4173 20.879 19.8 21.2058 20.3631C21.4091 20.7134 21.6129 20.8226 21.8774 21.2416C22.0795 21.5616 22.2527 21.8657 22.404 22.2703C23.3534 24.8099 22.1455 27.3758 20.7303 29.2303C20.4955 29.538 20.2691 29.7997 20.0391 30.089C19.9165 30.2432 19.8038 30.365 19.6847 30.5195C18.9014 31.5362 18.0933 32.5478 17.4322 33.6619C17.0429 34.3179 16.6681 34.9467 16.3612 35.6781L15.9384 36.7916L15.9384 36.7916Z" fill="#EE6B23"/>
<path fill-rule="evenodd" clip-rule="evenodd" d="M7.62863 5.97247L7.13039 6.41962C7.10853 6.44165 7.08303 6.46147 7.05869 6.48268C6.58461 6.89657 5.95895 7.8298 5.66204 8.32153C4.45691 10.3178 3.58247 12.6236 3.78155 15.1256C3.86424 16.1652 4.17109 17.1684 4.71351 17.999C4.79077 18.1173 4.88479 18.2217 4.94673 18.3293C5.38689 18.5541 9.2972 18.9696 9.97997 19.0745C10.4916 19.1531 10.9169 19.223 11.4013 19.3542C11.4782 19.3749 11.517 19.398 11.5921 19.4047L10.8 18.7914C10.668 18.6909 10.5465 18.5879 10.4211 18.4774L9.35459 17.4618C9.13577 17.2074 8.93872 16.9665 8.75524 16.6676C7.9629 15.377 8.12834 13.4603 8.73978 12.1024C9.02638 11.4659 9.50732 10.8512 9.8953 10.4709C10.8622 9.52294 12.0964 8.89178 13.4142 8.46445C13.9077 8.30449 15.1353 7.9804 15.6277 7.94095C16.0427 7.90327 16.4841 7.81688 16.914 7.77072C18.3892 7.61224 19.4082 7.6216 20.8782 8.00507C22.1821 8.34524 23.3748 8.8568 24.5557 9.47586C24.6394 9.51977 24.7157 9.56109 24.8047 9.60534C24.8779 9.64172 24.9955 9.68708 25.0454 9.74404C25.5268 9.94269 28.4217 11.7123 29.188 12.1316C29.3308 12.2097 29.68 12.3841 29.7816 12.4716C29.9575 12.539 30.1674 12.6683 30.347 12.7547C30.5474 12.8512 30.7307 12.9382 30.9386 13.0301C31.2881 13.1848 31.8187 13.4049 32.2189 13.4806C32.202 13.4548 31.5309 12.9324 31.4121 12.8093C31.345 12.7396 31.324 12.7192 31.2503 12.6578C31.0257 12.471 30.6041 11.9145 30.4145 11.6759C30.1092 11.2916 29.6083 10.3845 29.4028 9.96217L28.7375 8.48216C28.6697 8.33036 28.6172 8.20222 28.5545 8.05522L28.3573 7.64555L27.8418 7.10524C26.5198 5.83573 25.1462 5.03497 23.3795 4.36739C21.8643 3.79474 19.9638 3.42154 18.2865 3.32061C17.9644 3.30122 17.644 3.29335 17.3209 3.27992C17.1751 3.27387 16.4215 3.24949 16.3401 3.30631C16.0941 3.26009 15.2706 3.34667 14.9838 3.37552C13.0043 3.57493 11.1708 4.01978 9.38496 4.88115C8.95874 5.08676 8.42037 5.40236 8.03856 5.67357L7.62872 5.97251L7.62863 5.97247Z" fill="url(#paint0_linear_197_1687)"/>
<path fill-rule="evenodd" clip-rule="evenodd" d="M4.94688 18.3291C4.88494 18.2215 4.79093 18.1171 4.71366 17.9989C4.17125 17.1682 3.8644 16.165 3.7817 15.1255C3.58258 12.6234 4.45702 10.3176 5.66219 8.32136C5.9591 7.82962 6.58476 6.8964 7.05885 6.48251C7.08319 6.4613 7.10864 6.44147 7.13054 6.41945L7.62878 5.9723L8.03862 5.67335C8.42043 5.40214 8.9588 5.08654 9.38502 4.88093C11.1708 4.01956 13.0044 3.57471 14.9838 3.3753C15.2706 3.34646 16.0941 3.25988 16.3401 3.30609C16.4215 3.24927 17.1752 3.27365 17.321 3.2797C17.6441 3.29318 17.9645 3.30101 18.2866 3.32039C19.9638 3.42132 21.8643 3.79452 23.3795 4.36717C25.1462 5.03475 26.5198 5.83552 27.8419 7.10503L28.3574 7.64533C28.3316 7.5241 28.1445 7.17586 28.0794 7.04024C27.866 6.59496 27.6911 6.30599 27.4485 5.89051C27.283 5.60688 26.7427 4.86961 26.4979 4.61654C26.2644 4.37528 26.3794 4.45408 26.0702 4.17016L25.7296 3.83891C25.3423 3.47892 24.7749 3.07913 24.3326 2.80154C24.237 2.74155 24.1654 2.70061 24.0696 2.6411C24.0149 2.60717 23.9758 2.59167 23.9262 2.56182C23.1891 2.11735 22.1346 1.70006 21.3334 1.4216C20.7803 1.22939 19.8507 0.952469 19.2902 0.829463C18.2011 0.590506 17.5004 0.440192 16.3622 0.267561C15.9801 0.209585 15.1831 0.11096 14.7981 0.0910907L13.1521 0C12.8669 0 12.5816 0.000383944 12.2964 0L11.6594 0.0221728C11.5542 0.0254363 11.5591 0.040842 11.4627 0.0458333C10.585 0.0914746 9.46914 0.248988 8.60133 0.471099C8.56672 0.479978 8.5451 0.483913 8.51325 0.493656C8.50621 0.495816 8.48587 0.502487 8.47938 0.504886C8.47423 0.506806 8.46769 0.509686 8.46309 0.511557L8.43143 0.526291C8.32149 0.529027 7.81341 0.688651 7.68598 0.729349C6.92617 0.971906 6.0377 1.35758 5.35599 1.75462C4.61744 2.18483 4.01474 2.63189 3.40509 3.22105L2.27239 4.48816C2.23424 4.54158 2.2076 4.57604 2.16623 4.62916C1.95602 4.89922 1.68055 5.36648 1.5026 5.67618C1.16137 6.27 0.981397 6.73346 0.739847 7.37489C-0.0530932 9.48068 -0.337072 12.9009 0.536539 14.9647C0.928844 15.8915 1.45999 16.5814 2.24741 17.162C2.86193 17.6151 3.80006 18.0301 4.56005 18.2283C4.68467 18.2608 4.82397 18.3186 4.94693 18.3291L4.94688 18.3291Z" fill="url(#paint1_radial_197_1687)"/>
<path fill-rule="evenodd" clip-rule="evenodd" d="M27.742 37.7261C27.8032 37.6974 27.8869 37.5655 27.9364 37.5018L28.5071 36.7697C28.6367 36.6003 28.7543 36.4404 28.8798 36.266C29.4261 35.5066 29.7893 34.9658 30.2872 34.187C30.3436 34.0988 30.3936 34.0205 30.4541 33.9263C30.4912 33.8683 30.5026 33.8441 30.538 33.7849C30.574 33.7247 30.6001 33.7046 30.6143 33.6378C30.6459 33.4208 30.7068 33.1912 30.7457 32.9711C31.0268 31.3832 31.1353 29.6066 30.6003 28.0946C30.311 27.2767 29.8598 26.645 29.3112 26.2575C28.9636 26.0118 28.6003 25.8513 28.2142 26.1669C27.954 26.3795 27.7422 26.6915 27.5479 27.0518C27.1464 27.7964 27.0955 28.1294 26.8297 28.7049C26.5543 29.3008 25.6947 30.5153 25.3253 31.0715C24.9035 31.7065 24.4841 32.2948 24.0652 32.9138C23.6454 33.534 23.2442 34.1465 22.8328 34.7645C22.7926 34.7977 22.824 34.768 22.7896 34.8085C22.4588 35.1973 20.7011 38.2328 20.5419 38.5299C20.0966 39.3611 19.2841 40.8242 19.2753 41.8063C19.269 42.5144 19.4689 42.6499 19.6112 42.9968C20.8263 42.9968 22.3071 42.384 23.3527 41.76C23.5205 41.6599 23.6903 41.5501 23.8541 41.4362C24.0237 41.3182 24.1876 41.213 24.3506 41.0845C24.4338 41.0189 24.4997 40.974 24.5794 40.9112C24.6638 40.8448 24.7278 40.7892 24.8142 40.7213C25.0585 40.5298 25.6927 39.9746 25.9264 39.7302L26.7605 38.8839C26.8378 38.8037 26.8766 38.7384 26.9576 38.6547C27.0362 38.5735 27.0891 38.5241 27.1589 38.4299C27.247 38.3108 27.6652 37.872 27.742 37.726V37.7261Z" fill="url(#paint2_radial_197_1687)"/>
<path fill-rule="evenodd" clip-rule="evenodd" d="M27.6114 16.2415C27.8211 16.4308 29.7987 17.1047 30.2021 17.2295C31.8588 17.7418 34.075 17.9427 35.3772 19.2688C35.6847 19.5819 35.911 19.9908 36.0303 20.4416C36.1626 20.9415 36.2045 21.5861 36.2046 22.1276L36.7419 20.666C37.2082 19.1925 37.5186 18.2999 37.7332 16.6656C37.8 16.1565 37.809 15.3312 37.6172 14.8275C37.5264 14.5891 37.3978 14.3921 37.2095 14.2458C36.9872 14.0729 36.8592 13.9887 36.5882 13.8869C36.3544 13.7989 36.0957 13.7344 35.7976 13.7046C34.9877 13.6237 34.6748 13.688 33.9303 13.6836C33.7544 13.6825 33.657 13.7105 33.469 13.7076L33.0122 13.6806C32.4132 13.6135 32.38 13.5108 32.2191 13.4804C31.819 13.4047 31.2884 13.1846 30.9388 13.0299C30.731 12.9379 30.5477 12.8509 30.3473 12.7545C30.1677 12.6681 29.9577 12.5388 29.7818 12.4713C29.6802 12.3839 29.331 12.2094 29.1882 12.1314C28.4219 11.712 25.527 9.94245 25.0457 9.74381C24.9957 9.68684 24.8782 9.64149 24.805 9.60511C24.716 9.56086 24.6396 9.51959 24.5559 9.47562C23.3751 8.85656 22.1824 8.34496 20.8784 8.00483C19.4084 7.62132 18.3894 7.61201 16.9142 7.77048C16.4843 7.81665 16.0429 7.90304 15.6279 7.94071C15.1356 7.98016 13.908 8.30421 13.4145 8.46422C12.0966 8.89155 10.8625 9.5227 9.89555 10.4707C9.50761 10.851 9.02668 11.4657 8.74003 12.1021C8.12859 13.4601 7.96315 15.3768 8.75549 16.6674C8.93897 16.9662 9.13602 17.2072 9.35483 17.4616L10.4214 18.4771C10.5467 18.5877 10.6682 18.6907 10.8002 18.7912L11.5923 19.4045L12.2151 19.6267C12.4285 19.7155 12.5933 19.7988 12.7781 19.9091C13.1279 20.1178 13.2071 20.2083 13.476 20.4855C13.6511 20.6661 13.8796 21.0564 13.9733 21.294C14.0153 21.4005 14.0587 21.4872 14.1021 21.5946C14.1473 21.7065 14.1814 21.8113 14.2191 21.9302C14.6166 23.1841 14.9091 25.0887 15.0166 26.3844C15.0605 26.9146 15.1297 27.4586 15.1691 27.9872L15.3024 29.5989C15.6936 29.2529 16.1602 28.6539 16.4704 28.1966C17.649 26.4591 18.2436 24.1763 17.5529 22.0463C17.1244 20.725 16.4224 19.6902 15.7931 18.6176C15.3475 17.8581 14.7496 16.9201 14.4887 16.0413C14.3474 15.5654 14.3787 15.3573 14.3787 14.8737L14.4007 14.8508V14.7593L14.4226 14.7364V14.6677L14.4446 14.6448V14.599L14.4665 14.5533V14.5303L14.4885 14.4846V14.4617L14.5104 14.4388V14.4159L14.5323 14.3701V14.3472L14.5543 14.3243V14.3014L14.5762 14.2785V14.2556L14.5982 14.2327C14.8329 13.6431 15.5845 13.0162 16.1024 12.6639C17.962 11.3994 20.1206 12.0156 21.9605 12.9859C22.1217 13.0709 22.2942 13.159 22.4492 13.2555C22.5841 13.3394 22.822 13.4963 22.9557 13.5486C23.0083 13.6127 25.0751 14.9055 25.1888 14.9743C25.558 15.1981 27.19 16.1121 27.6114 16.2411V16.2415Z" fill="url(#paint3_radial_197_1687)"/>
<path fill-rule="evenodd" clip-rule="evenodd" d="M75.5974 13.753C75.5974 12.9903 75.8969 12.1028 76.3598 11.5962C76.5017 11.441 76.5259 11.3897 76.7162 11.2357C77.725 10.4194 78.9796 10.3952 80.008 11.2125L80.5341 11.785C80.8042 12.1599 80.9902 12.607 81.0813 13.068C81.2787 14.0683 81.0084 15.2562 80.364 15.9324C80.2829 16.0176 80.2917 16.0407 80.1926 16.1198C79.9671 16.2995 79.9341 16.3902 79.5615 16.5828C78.6527 17.0529 77.5439 16.977 76.7551 16.2984C76.3384 15.9399 76.0396 15.5448 75.8353 15.0151C75.7084 14.6859 75.5974 14.2187 75.5974 13.7529L75.5974 13.753ZM80.9949 8.85608C80.7451 8.68167 80.7224 8.6438 80.4153 8.4538C79.8394 8.09745 78.8899 7.78065 78.1645 7.78065H77.7477C76.6449 7.78065 75.3412 8.39155 74.5933 9.11327C74.5276 9.17662 74.4849 9.2369 74.4158 9.29425C74.3169 9.37646 74.3191 9.37411 74.2403 9.4773C74.1851 9.54957 74.1263 9.59104 74.068 9.66375C72.3185 11.8429 72.1086 14.7857 73.5059 17.2386C73.7352 17.6411 73.8707 17.7644 74.1087 18.0744C74.4644 18.5378 75.1706 19.0895 75.6703 19.3519C76.9494 20.0239 78.3071 20.1247 79.6724 19.5588C80.236 19.3253 80.5375 19.0991 81.0169 18.7643C81.0169 19.7939 81.0024 20.3927 80.2654 21.1612C80.1251 21.3076 80.0199 21.391 79.8604 21.5169C79.7852 21.5763 79.7111 21.6231 79.6336 21.6694C79.5573 21.7151 79.4573 21.7757 79.3747 21.8113C78.7967 22.0601 78.618 22.1281 77.9232 22.1281C76.935 22.1281 75.9865 21.4975 75.4658 20.6865C74.6382 21.2645 73.8139 21.8476 72.9864 22.4256C73.0105 22.5196 73.3376 22.9197 73.4 23.001C73.639 23.3122 74.0891 23.7287 74.4001 23.9718C76.6017 25.6931 79.5482 25.6409 81.7347 23.9293L81.9917 23.7168C82.086 23.6399 82.134 23.5818 82.2269 23.5045C82.3584 23.3952 82.6556 23.0438 82.7773 22.8885C83.3724 22.1286 83.8536 21.1857 84.0469 20.1853C84.1476 19.6639 84.1984 19.0984 84.1984 18.4669C84.1984 17.8324 84.2203 17.2422 84.2203 16.5905V7.73486H80.995V8.85612L80.9949 8.85608Z" fill="#171637"/>
<path fill-rule="evenodd" clip-rule="evenodd" d="M51.9014 7.16278C51.9304 7.19758 51.924 7.18827 51.9429 7.23396L52.1345 7.83502C52.2109 8.07398 52.274 8.2839 52.3537 8.5217C52.5094 8.98613 52.6543 9.43789 52.8038 9.90577L53.7006 12.6546H50.1242L51.9014 7.16278ZM44.222 19.6339H47.8642C47.9024 19.4626 47.9689 19.3196 48.0207 19.1564C48.0704 19 48.1219 18.8392 48.1742 18.6757L49.1148 15.7667H54.7098C54.7438 15.9185 54.8143 16.1051 54.8606 16.2502L55.9605 19.6339H59.5588C59.5524 19.5537 59.512 19.445 59.4837 19.3689C59.4481 19.2732 59.4256 19.1956 59.3897 19.1008L58.283 15.9301C58.2218 15.7592 58.1637 15.5747 58.0951 15.3938C57.9607 15.0392 57.8575 14.6959 57.725 14.3383L57.3562 13.2813C57.235 12.9169 57.1032 12.5818 56.9889 12.2227C56.7996 11.6278 56.4578 10.6954 56.2488 10.1114L55.3325 7.4744C54.9322 6.27026 54.4223 4.95746 54.0376 3.76771C53.9928 3.62906 53.6868 2.80444 53.6785 2.70068H50.1459C50.1245 2.79686 50.0887 2.86775 50.0609 2.95519L49.4081 4.81429C49.2897 5.18039 49.1592 5.50683 49.0408 5.87292C48.8272 6.53369 48.5109 7.32159 48.3002 7.98375C48.2471 8.15048 48.1827 8.32719 48.118 8.50313C47.8356 9.2704 47.5582 10.1553 47.2781 10.8994C46.9641 11.733 46.6717 12.6938 46.3565 13.5309L46.0741 14.3348C45.8228 15.0127 45.59 15.7724 45.3344 16.4465C45.2666 16.6252 45.2194 16.786 45.1526 16.9663C44.9616 17.4815 44.7907 18.043 44.5948 18.5584L44.2219 19.634L44.222 19.6339Z" fill="#171637"/>
<path fill-rule="evenodd" clip-rule="evenodd" d="M90.1221 17.4828C88.6789 17.4828 88.8625 16.0087 89.4922 15.4529C90.2639 14.7717 91.7556 14.8172 92.6921 14.4652C92.7827 14.4312 92.8924 14.3678 92.9745 14.3479C92.9745 14.8939 92.9439 15.2717 92.7835 15.6589C92.7093 15.8377 92.6157 15.9915 92.5137 16.1327C92.3853 16.3109 92.2366 16.4942 92.0718 16.6329C92.033 16.6655 92.0211 16.6824 91.9778 16.718C91.4739 17.1338 90.784 17.4828 90.1221 17.4828H90.1221ZM86.6335 11.213L89.2225 11.8994C89.2448 11.6209 89.6834 11.0154 89.9684 10.8008C90.6563 10.2828 91.7606 10.1563 92.42 10.6699C92.6345 10.8369 92.9525 11.2086 92.9525 11.579C92.9525 12.1949 92.5581 12.2992 92.0532 12.426C90.4676 12.8243 88.6723 12.917 87.2388 13.9495C86.8247 14.2478 86.3866 14.7544 86.1881 15.2336C85.709 16.3908 85.872 18.0393 86.6823 18.8962C86.8991 19.1254 87.1439 19.3029 87.42 19.454C87.6285 19.5681 87.9298 19.668 88.1648 19.7299C89.344 20.0402 90.7486 19.7761 91.8084 19.3329C92.1883 19.1741 92.4438 19.0332 92.7857 18.7962C92.8452 18.755 92.9154 18.6891 92.9744 18.6726V19.6566H96.0461L96.0462 13.8672C96.0469 13.673 96.0231 13.5763 96.024 13.3869C96.0292 12.3343 96.1112 11.477 95.7694 10.4031C95.593 9.8489 95.3288 9.3071 94.9765 8.94178C94.8263 8.78595 94.7297 8.66731 94.5499 8.54003C94.4853 8.49425 94.4481 8.45912 94.3831 8.4165C93.279 7.69118 91.6057 7.58348 90.3412 7.80315C89.2763 7.98821 88.4851 8.45489 87.7357 9.22763L87.5015 9.50959C87.3613 9.69748 87.2092 9.90875 87.095 10.1155C86.9656 10.3498 86.6521 10.9788 86.6334 11.2129L86.6335 11.213Z" fill="#171637"/>
<path fill-rule="evenodd" clip-rule="evenodd" d="M107.346 17.4829C107.051 17.4829 106.76 17.4031 106.584 17.2711C106.4 17.1334 106.249 16.9085 106.249 16.5905C106.249 15.5542 106.949 15.1868 107.736 14.961C108.395 14.7721 109.306 14.6938 109.916 14.4652C110.007 14.4312 110.116 14.368 110.198 14.3479C110.198 14.9519 110.269 15.1394 110.016 15.6676C109.844 16.0246 109.648 16.2832 109.392 16.5508C109.151 16.8042 108.821 17.0106 108.516 17.1702C108.197 17.3374 107.724 17.4829 107.346 17.4829ZM103.857 11.213C104.077 11.2663 104.281 11.3296 104.502 11.3871C104.729 11.4458 104.934 11.4993 105.152 11.5562C105.58 11.6679 106.012 11.7941 106.446 11.8995C106.495 11.6813 106.648 11.448 106.754 11.2815C106.814 11.1857 106.878 11.1175 106.947 11.0262C107.084 10.8472 107.545 10.5603 107.782 10.4777C107.884 10.4422 108.03 10.4074 108.154 10.3854C108.695 10.2897 109.215 10.3571 109.659 10.6769C110.123 11.0107 110.39 11.7823 109.973 12.145C109.855 12.2482 109.631 12.3299 109.47 12.3754C109.093 12.4823 108.677 12.5645 108.271 12.6347C107.511 12.7662 106.637 12.9664 105.912 13.218C104.987 13.5391 104.064 14.075 103.576 14.924C103.533 14.9994 103.473 15.1014 103.443 15.1745C103.051 16.133 103.048 17.1859 103.428 18.1369C103.499 18.3149 103.607 18.4988 103.71 18.6436C105.002 20.4611 108.122 19.984 109.824 18.9231C109.893 18.8805 109.94 18.8501 110.01 18.7969C110.069 18.7524 110.134 18.6905 110.198 18.6726V19.6566H113.27L113.271 13.6835C113.271 13.5318 113.248 13.4461 113.248 13.2724C113.249 12.9831 113.27 12.7365 113.27 12.4257C113.27 11.7003 113.176 10.9715 112.999 10.4206C112.904 10.1285 112.731 9.6838 112.577 9.44144C112.289 8.98589 112.047 8.72418 111.607 8.41659C111.397 8.26921 111.135 8.1342 110.871 8.04057C109.977 7.72415 109.401 7.71191 108.465 7.71191C107.374 7.71191 106.282 8.10219 105.481 8.74136L104.96 9.22763C104.651 9.57529 104.342 10.0401 104.143 10.4578C104.078 10.5934 103.87 11.0565 103.857 11.213V11.213Z" fill="#171637"/>
<path fill-rule="evenodd" clip-rule="evenodd" d="M63.969 8.94733V7.73455H60.7437V19.6336H63.969V12.723C63.969 12.4558 64.0694 12.145 64.159 11.96C64.2597 11.7523 64.3716 11.5486 64.5228 11.3783C64.7733 11.0961 65.2573 10.7551 65.7682 10.7551C66.3991 10.7551 66.7697 10.8988 67.1891 11.3326C67.5018 11.656 67.721 12.1235 67.721 12.6086V19.7251H70.7928V12.6543C70.7928 10.7971 69.8889 9.05685 68.5289 8.19633C67.4481 7.51248 66.1781 7.49712 65.0513 8.08509C64.45 8.39886 64.122 8.84054 63.9691 8.94728L63.969 8.94733Z" fill="#171637"/>
<path fill-rule="evenodd" clip-rule="evenodd" d="M103.573 39.7248H106.425V34.3474C106.425 33.5737 106.457 33.0875 106.733 32.586C106.943 32.2053 107.45 31.8303 108.027 31.8303C108.402 31.8303 108.704 31.8156 109.044 32.0057C109.609 32.322 109.892 32.9782 109.892 33.7067V39.7248H112.766V33.1574C112.766 32.2099 112.66 31.477 112.262 30.709C112.055 30.311 111.865 30.1053 111.555 29.8217C111.478 29.7513 111.394 29.6842 111.303 29.626C110.55 29.1405 109.994 29.1073 109.102 29.1073C108.814 29.1073 108.432 29.204 108.224 29.2903C107.9 29.425 107.814 29.4535 107.509 29.6653C107.099 29.9504 106.966 30.1346 106.683 30.4516L106.425 30.7548V25.5146H103.573V39.7248V39.7248Z" fill="#171637"/>
<path fill-rule="evenodd" clip-rule="evenodd" d="M44.5732 39.7246H47.4695V34.4615H53.7008V31.7614H47.4695V28.8095H54.5346V26.1094H44.5732V39.7246Z" fill="#171637"/>
<path fill-rule="evenodd" clip-rule="evenodd" d="M85.7776 31.5096C86.2571 31.5096 86.4868 31.489 86.9335 31.7229C87.1511 31.8369 87.3436 32.011 87.4862 32.1991L87.6866 32.4935C87.8532 32.7552 88.0595 33.3454 88.0595 33.6835H83.8248C83.8342 33.2454 84.1607 32.5627 84.4323 32.2118C84.7379 31.8168 85.2564 31.5096 85.7776 31.5096ZM81.0164 34.5302C81.0164 35.998 81.4866 37.3891 82.4152 38.3573C82.9615 38.9268 83.4119 39.2548 84.1227 39.5512C85.037 39.9325 85.5783 39.9533 86.5675 39.9533C87.1364 39.9533 87.8277 39.7921 88.3231 39.5875C88.4934 39.5172 88.6332 39.4362 88.7982 39.3508C88.9682 39.2629 89.0832 39.1804 89.2356 39.0746C89.3922 38.9659 89.4958 38.8763 89.6364 38.7605C89.8259 38.6046 90.2104 38.2124 90.3414 38.0083L88.7178 36.4981C88.6591 36.5391 88.5638 36.6311 88.5032 36.6862C88.4331 36.7502 88.3571 36.8106 88.2824 36.8678C87.7872 37.2471 87.1788 37.5507 86.5017 37.5507C85.9882 37.5507 85.7087 37.5727 85.2163 37.3582C84.7563 37.1577 84.364 36.8242 84.1391 36.3535C84.046 36.1585 83.8887 35.8096 83.8688 35.56H90.4292C90.8992 35.56 90.846 35.7668 90.846 34.5302C90.846 33.7458 90.6719 32.9721 90.4814 32.3705C90.216 31.5324 89.6505 30.6459 88.9814 30.1134C88.862 30.0184 88.7541 29.941 88.6212 29.8485C87.9977 29.4143 87.1124 29.107 86.2604 29.107C85.622 29.107 85.261 29.0876 84.6238 29.2766C84.2436 29.3894 84.0851 29.4633 83.7444 29.6409C83.1555 29.948 82.6114 30.4036 82.204 30.9406C81.4389 31.9493 81.0164 33.1581 81.0164 34.5302L81.0164 34.5302Z" fill="#171637"/>
<path fill-rule="evenodd" clip-rule="evenodd" d="M64.9792 30.7545V29.29H62.1268V39.7246H64.9792V34.3471C64.9792 33.5734 65.0106 33.0872 65.287 32.5858C65.4968 32.2051 66.0044 31.8301 66.5809 31.8301C66.9561 31.8301 67.2576 31.8154 67.5975 32.0054C68.1633 32.3218 68.4459 32.978 68.4459 33.7064V39.7246H71.3202V33.1572C71.3202 32.4299 71.2471 31.7795 71.0258 31.176L70.5455 30.2809C70.4729 30.1919 70.4171 30.1211 70.3383 30.0394C70.2966 29.9961 70.2714 29.9671 70.229 29.9245L69.8573 29.6257C69.7677 29.5679 69.6742 29.5031 69.5799 29.4574C68.8671 29.1131 68.434 29.1069 67.656 29.1069C67.3675 29.1069 66.9863 29.2037 66.7783 29.29C65.4807 29.8281 65.237 30.5744 64.9791 30.7545L64.9792 30.7545Z" fill="#171637"/>
<path fill-rule="evenodd" clip-rule="evenodd" d="M98.2197 19.6337C98.2197 19.6864 98.235 19.7023 98.2855 19.7023H101.138C101.188 19.7023 101.204 19.6864 101.204 19.6337V1.51057C101.204 1.45783 101.188 1.44189 101.138 1.44189H98.2198V19.6337H98.2197Z" fill="#171637"/>
<path fill-rule="evenodd" clip-rule="evenodd" d="M92.4481 34.553C92.4481 35.4219 92.6284 36.1148 92.8775 36.7368C93.3323 37.8724 94.1123 38.7146 95.1319 39.3053L95.5573 39.5253C96.4657 39.9345 97.0499 39.9533 98.0211 39.9533C99.191 39.9533 100.153 39.512 101.034 38.7707C101.206 38.6263 101.643 38.2226 101.751 38.0541L100.106 36.2922L99.7821 36.5726C99.3541 36.9713 98.6399 37.3905 97.9992 37.3905C97.3931 37.3905 97.1919 37.4028 96.6388 37.1159C96.1049 36.8389 95.7144 36.3627 95.4944 35.7923C95.2033 35.0373 95.1962 34.046 95.4882 33.2844C95.6076 32.9729 95.8511 32.5721 96.0632 32.351C96.3928 32.0072 96.9965 31.6699 97.4945 31.6699C98.1743 31.6699 98.5245 31.6702 99.114 32.0633C99.311 32.1946 99.6019 32.4373 99.7709 32.6138C99.8366 32.6825 99.8842 32.7815 99.9958 32.7911C100.023 32.685 100.128 32.6191 100.199 32.5455L101.263 31.3435C101.4 31.2004 101.598 30.9454 101.707 30.8689C101.628 30.7458 101.501 30.6073 101.387 30.5161C101.316 30.4582 101.284 30.4075 101.218 30.3493C101.15 30.2896 101.09 30.2461 101.022 30.1877C100.217 29.498 99.1064 29.1069 98.043 29.1069C97.1719 29.1069 96.6618 29.1103 95.8242 29.4244L95.1729 29.7292C94.832 29.946 94.7559 29.9677 94.4004 30.2507C94.3615 30.2817 94.3555 30.2905 94.3179 30.3248C94.275 30.3639 94.2624 30.3666 94.2199 30.4057C94.1617 30.4591 94.1252 30.5127 94.0651 30.5646C93.8505 30.75 93.4767 31.2282 93.3298 31.4682C92.7873 32.3546 92.4479 33.3667 92.4479 34.553L92.4481 34.553Z" fill="#171637"/>
<path fill-rule="evenodd" clip-rule="evenodd" d="M74.238 29.2902H73.0312V31.8303H74.238V37.0475C74.238 37.4459 74.3189 37.9529 74.4286 38.2445C74.5218 38.4921 74.62 38.716 74.7644 38.9241C75.0059 39.2721 75.32 39.5199 75.7203 39.6891C76.4479 39.9964 77.7661 39.9765 78.5082 39.7161C78.9281 39.5688 79.0205 39.5191 79.3941 39.3128V36.933C79.3235 36.9502 79.1974 37.0159 79.1303 37.0468C78.638 37.2737 78.3582 37.2762 77.8363 37.2762C77.6007 37.2762 77.4115 37.1523 77.2928 37.0193C77.1776 36.8901 77.0903 36.6492 77.0903 36.4067V31.8302H79.438V29.2901H77.0903V26.6357H74.2379V29.2901L74.238 29.2902Z" fill="#171637"/>
<path fill-rule="evenodd" clip-rule="evenodd" d="M56.6191 39.7246H59.4714V29.29H56.6191V39.7246Z" fill="#171637"/>
<path fill-rule="evenodd" clip-rule="evenodd" d="M56.5543 28.1462H59.5602V25.5146H56.5543V28.1462Z" fill="#171637"/>
<defs>
<linearGradient id="paint0_linear_197_1687" x1="3.7532" y1="11.3371" x2="32.2188" y2="11.3371" gradientUnits="userSpaceOnUse">
<stop stop-color="#C62B40"/>
<stop offset="1" stop-color="#D73738"/>
</linearGradient>
<radialGradient id="paint1_radial_197_1687" cx="0" cy="0" r="1" gradientUnits="userSpaceOnUse" gradientTransform="translate(15.3146 6.04727) scale(14.1787 9.16458)">
<stop stop-color="#FFCC4C"/>
<stop offset="1" stop-color="#F49117"/>
</radialGradient>
<radialGradient id="paint2_radial_197_1687" cx="0" cy="0" r="1" gradientUnits="userSpaceOnUse" gradientTransform="translate(25.1274 34.4943) scale(5.85203 8.50258)">
<stop stop-color="#F9BB09"/>
<stop offset="1" stop-color="#F8AA0E"/>
</radialGradient>
<radialGradient id="paint3_radial_197_1687" cx="0" cy="0" r="1" gradientUnits="userSpaceOnUse" gradientTransform="translate(24.4761 18.1983) rotate(42.8698) scale(12.5879 12.8701)">
<stop stop-color="#FFD56B"/>
<stop offset="1" stop-color="#FF8C08"/>
</radialGradient>
</defs>
</svg>
