<svg width="19" height="18" viewBox="0 0 19 18" fill="none" xmlns="http://www.w3.org/2000/svg">
<path d="M16.7947 14.3974C16.8734 14.4985 16.9289 14.6077 16.9604 14.7251C17.0039 14.8877 17.0014 15.0504 16.9526 15.2147C16.9041 15.3784 16.8118 15.5186 16.6762 15.6346L16.0373 16.1725C15.7869 16.3785 15.5266 16.5492 15.2564 16.6845C14.9863 16.8198 14.7053 16.9268 14.413 17.0051C13.943 17.1311 13.4579 17.1773 12.9573 17.1439C12.4568 17.1106 11.958 17.0043 11.4611 16.8256C10.9641 16.6468 10.4765 16.4 9.99895 16.0857C9.52126 15.771 9.0689 15.3988 8.64261 14.9684C8.38214 14.7363 8.10174 14.4669 7.80099 14.1605C7.54587 13.8993 7.24995 13.5839 6.91271 13.2139C6.57557 12.8443 6.22397 12.4275 5.85738 11.9648C5.4856 11.5031 5.17932 11.095 4.93896 10.7402C4.69848 10.385 4.50618 10.088 4.3629 9.84889C4.19529 9.56969 4.06625 9.32633 3.9759 9.11922C3.74941 8.75033 3.55473 8.37518 3.39229 7.99365C3.22986 7.61211 3.09674 7.2268 2.99263 6.83825C2.85649 6.33017 2.77666 5.82782 2.75249 5.33048C2.72832 4.83313 2.76788 4.35402 2.87033 3.89337C2.97278 3.43271 3.14325 2.99955 3.38175 2.59388C3.62024 2.18821 3.93383 1.82625 4.32227 1.50715L4.95395 0.982548C5.05455 0.903537 5.16213 0.848908 5.27616 0.818353C5.43665 0.775349 5.59805 0.779635 5.76045 0.831631C5.92244 0.88374 6.05927 0.978803 6.17021 1.11747L8.40042 3.89452C8.47955 3.99554 8.53418 4.10312 8.56473 4.21716C8.60966 4.38483 8.60811 4.55137 8.55967 4.7169C8.51123 4.88243 8.41822 5.02187 8.28012 5.13493L7.03034 6.17234C6.86518 6.3094 6.75511 6.47469 6.69952 6.6693C6.64435 6.86379 6.64241 7.05759 6.69424 7.25103C6.73363 7.398 6.79808 7.52876 6.88815 7.64359L10.6603 12.3605C10.807 12.5416 10.9738 12.6589 11.1615 12.7123C11.3487 12.7658 11.5379 12.7672 11.7279 12.7163C11.8576 12.6815 11.9819 12.6165 12.1009 12.5217L13.3506 11.4843C13.4501 11.4061 13.5567 11.3512 13.6707 11.3207C13.8279 11.2786 13.9884 11.2831 14.1521 11.3348C14.3157 11.3864 14.454 11.4802 14.5666 11.6166L16.7947 14.3974Z" fill="white"/>
</svg>
