<svg width="321" height="322" viewBox="0 0 321 322" fill="none" xmlns="http://www.w3.org/2000/svg">
<path fill-rule="evenodd" clip-rule="evenodd" d="M8.85586 17.1529C13.4327 17.1529 17.1429 13.4427 17.1429 8.86587C17.1429 4.28908 13.4327 0.578857 8.85586 0.578857C4.27907 0.578857 0.568848 4.28908 0.568848 8.86587C0.568848 13.4427 4.27907 17.1529 8.85586 17.1529ZM8.85586 138.694C13.4327 138.694 17.1429 134.984 17.1429 130.407C17.1429 125.831 13.4327 122.12 8.85586 122.12C4.27907 122.12 0.568848 125.831 0.568848 130.407C0.568848 134.984 4.27907 138.694 8.85586 138.694ZM17.1429 251.952C17.1429 256.529 13.4327 260.239 8.85586 260.239C4.27907 260.239 0.568848 256.529 0.568848 251.952C0.568848 247.375 4.27907 243.665 8.85586 243.665C13.4327 243.665 17.1429 247.375 17.1429 251.952ZM8.85586 77.9235C13.4327 77.9235 17.1429 74.2133 17.1429 69.6365C17.1429 65.0597 13.4327 61.3495 8.85586 61.3495C4.27907 61.3495 0.568848 65.0597 0.568848 69.6365C0.568848 74.2133 4.27907 77.9235 8.85586 77.9235ZM17.1429 191.181C17.1429 195.758 13.4327 199.468 8.85586 199.468C4.27907 199.468 0.568848 195.758 0.568848 191.181C0.568848 186.604 4.27907 182.894 8.85586 182.894C13.4327 182.894 17.1429 186.604 17.1429 191.181ZM8.85586 321.01C13.4327 321.01 17.1429 317.3 17.1429 312.723C17.1429 308.146 13.4327 304.436 8.85586 304.436C4.27907 304.436 0.568848 308.146 0.568848 312.723C0.568848 317.3 4.27907 321.01 8.85586 321.01ZM260.229 8.86587C260.229 13.4427 256.518 17.1529 251.942 17.1529C247.365 17.1529 243.654 13.4427 243.654 8.86587C243.654 4.28908 247.365 0.578857 251.942 0.578857C256.518 0.578857 260.229 4.28908 260.229 8.86587ZM251.942 138.694C256.518 138.694 260.229 134.984 260.229 130.407C260.229 125.831 256.518 122.12 251.942 122.12C247.365 122.12 243.654 125.831 243.654 130.407C243.654 134.984 247.365 138.694 251.942 138.694ZM260.229 251.952C260.229 256.529 256.518 260.239 251.942 260.239C247.365 260.239 243.654 256.529 243.654 251.952C243.654 247.375 247.365 243.665 251.942 243.665C256.518 243.665 260.229 247.375 260.229 251.952ZM251.942 77.9235C256.518 77.9235 260.229 74.2133 260.229 69.6365C260.229 65.0597 256.518 61.3495 251.942 61.3495C247.365 61.3495 243.654 65.0597 243.654 69.6365C243.654 74.2133 247.365 77.9235 251.942 77.9235ZM260.229 191.181C260.229 195.758 256.518 199.468 251.942 199.468C247.365 199.468 243.654 195.758 243.654 191.181C243.654 186.604 247.365 182.894 251.942 182.894C256.518 182.894 260.229 186.604 260.229 191.181ZM251.942 321.01C256.518 321.01 260.229 317.3 260.229 312.723C260.229 308.146 256.518 304.436 251.942 304.436C247.365 304.436 243.654 308.146 243.654 312.723C243.654 317.3 247.365 321.01 251.942 321.01ZM138.686 8.86587C138.686 13.4427 134.976 17.1529 130.399 17.1529C125.822 17.1529 122.112 13.4427 122.112 8.86587C122.112 4.28908 125.822 0.578857 130.399 0.578857C134.976 0.578857 138.686 4.28908 138.686 8.86587ZM130.399 138.694C134.976 138.694 138.686 134.984 138.686 130.407C138.686 125.831 134.976 122.12 130.399 122.12C125.822 122.12 122.112 125.831 122.112 130.407C122.112 134.984 125.822 138.694 130.399 138.694ZM138.686 251.952C138.686 256.529 134.976 260.239 130.399 260.239C125.822 260.239 122.112 256.529 122.112 251.952C122.112 247.375 125.822 243.665 130.399 243.665C134.976 243.665 138.686 247.375 138.686 251.952ZM130.399 77.9235C134.976 77.9235 138.686 74.2133 138.686 69.6365C138.686 65.0597 134.976 61.3495 130.399 61.3495C125.822 61.3495 122.112 65.0597 122.112 69.6365C122.112 74.2133 125.822 77.9235 130.399 77.9235ZM138.686 191.181C138.686 195.758 134.976 199.468 130.399 199.468C125.822 199.468 122.112 195.758 122.112 191.181C122.112 186.604 125.822 182.894 130.399 182.894C134.976 182.894 138.686 186.604 138.686 191.181ZM130.399 321.01C134.976 321.01 138.686 317.3 138.686 312.723C138.686 308.146 134.976 304.436 130.399 304.436C125.822 304.436 122.112 308.146 122.112 312.723C122.112 317.3 125.822 321.01 130.399 321.01ZM77.9143 8.86587C77.9143 13.4427 74.2041 17.1529 69.6273 17.1529C65.0505 17.1529 61.3403 13.4427 61.3403 8.86587C61.3403 4.28908 65.0505 0.578857 69.6273 0.578857C74.2041 0.578857 77.9143 4.28908 77.9143 8.86587ZM69.6273 138.694C74.2041 138.694 77.9143 134.984 77.9143 130.407C77.9143 125.831 74.2041 122.12 69.6273 122.12C65.0505 122.12 61.3403 125.831 61.3403 130.407C61.3403 134.984 65.0505 138.694 69.6273 138.694ZM77.9143 251.952C77.9143 256.529 74.2041 260.239 69.6273 260.239C65.0505 260.239 61.3403 256.529 61.3403 251.952C61.3403 247.375 65.0505 243.665 69.6273 243.665C74.2041 243.665 77.9143 247.375 77.9143 251.952ZM69.6273 77.9235C74.2041 77.9235 77.9143 74.2133 77.9143 69.6365C77.9143 65.0597 74.2041 61.3495 69.6273 61.3495C65.0505 61.3495 61.3403 65.0597 61.3403 69.6365C61.3403 74.2133 65.0505 77.9235 69.6273 77.9235ZM77.9143 191.181C77.9143 195.758 74.2041 199.468 69.6273 199.468C65.0505 199.468 61.3403 195.758 61.3403 191.181C61.3403 186.604 65.0505 182.894 69.6273 182.894C74.2041 182.894 77.9143 186.604 77.9143 191.181ZM69.6273 321.01C74.2041 321.01 77.9143 317.3 77.9143 312.723C77.9143 308.146 74.2041 304.436 69.6273 304.436C65.0505 304.436 61.3403 308.146 61.3403 312.723C61.3403 317.3 65.0505 321.01 69.6273 321.01ZM321 8.86587C321 13.4427 317.29 17.1529 312.713 17.1529C308.136 17.1529 304.426 13.4427 304.426 8.86587C304.426 4.28908 308.136 0.578857 312.713 0.578857C317.29 0.578857 321 4.28908 321 8.86587ZM312.713 138.694C317.29 138.694 321 134.984 321 130.407C321 125.831 317.29 122.12 312.713 122.12C308.136 122.12 304.426 125.831 304.426 130.407C304.426 134.984 308.136 138.694 312.713 138.694ZM321 251.952C321 256.529 317.29 260.239 312.713 260.239C308.136 260.239 304.426 256.529 304.426 251.952C304.426 247.375 308.136 243.665 312.713 243.665C317.29 243.665 321 247.375 321 251.952ZM312.713 77.9235C317.29 77.9235 321 74.2133 321 69.6365C321 65.0597 317.29 61.3495 312.713 61.3495C308.136 61.3495 304.426 65.0597 304.426 69.6365C304.426 74.2133 308.136 77.9235 312.713 77.9235ZM321 191.181C321 195.758 317.29 199.468 312.713 199.468C308.136 199.468 304.426 195.758 304.426 191.181C304.426 186.604 308.136 182.894 312.713 182.894C317.29 182.894 321 186.604 321 191.181ZM312.713 321.01C317.29 321.01 321 317.3 321 312.723C321 308.146 317.29 304.436 312.713 304.436C308.136 304.436 304.426 308.146 304.426 312.723C304.426 317.3 308.136 321.01 312.713 321.01ZM199.457 8.86587C199.457 13.4427 195.747 17.1529 191.17 17.1529C186.593 17.1529 182.883 13.4427 182.883 8.86587C182.883 4.28908 186.593 0.578857 191.17 0.578857C195.747 0.578857 199.457 4.28908 199.457 8.86587ZM191.17 138.694C195.747 138.694 199.457 134.984 199.457 130.407C199.457 125.831 195.747 122.12 191.17 122.12C186.593 122.12 182.883 125.831 182.883 130.407C182.883 134.984 186.593 138.694 191.17 138.694ZM199.457 251.952C199.457 256.529 195.747 260.239 191.17 260.239C186.593 260.239 182.883 256.529 182.883 251.952C182.883 247.375 186.593 243.665 191.17 243.665C195.747 243.665 199.457 247.375 199.457 251.952ZM191.17 77.9235C195.747 77.9235 199.457 74.2133 199.457 69.6365C199.457 65.0597 195.747 61.3495 191.17 61.3495C186.593 61.3495 182.883 65.0597 182.883 69.6365C182.883 74.2133 186.593 77.9235 191.17 77.9235ZM199.457 191.181C199.457 195.758 195.747 199.468 191.17 199.468C186.593 199.468 182.883 195.758 182.883 191.181C182.883 186.604 186.593 182.894 191.17 182.894C195.747 182.894 199.457 186.604 199.457 191.181ZM191.17 321.01C195.747 321.01 199.457 317.3 199.457 312.723C199.457 308.146 195.747 304.436 191.17 304.436C186.593 304.436 182.883 308.146 182.883 312.723C182.883 317.3 186.593 321.01 191.17 321.01Z" fill="#8DC63F"/>
</svg>
