<svg width="117" height="116" viewBox="0 0 117 116" fill="none" xmlns="http://www.w3.org/2000/svg">
<path fill-rule="evenodd" clip-rule="evenodd" d="M3.5 6C5.15685 6 6.5 4.65685 6.5 3C6.5 1.34315 5.15685 0 3.5 0C1.84315 0 0.5 1.34315 0.5 3C0.5 4.65685 1.84315 6 3.5 6ZM3.5 50C5.15685 50 6.5 48.6569 6.5 47C6.5 45.3431 5.15685 44 3.5 44C1.84315 44 0.5 45.3431 0.5 47C0.5 48.6569 1.84315 50 3.5 50ZM6.5 91C6.5 92.6569 5.15685 94 3.5 94C1.84315 94 0.5 92.6569 0.5 91C0.5 89.3431 1.84315 88 3.5 88C5.15685 88 6.5 89.3431 6.5 91ZM3.5 28C5.15685 28 6.5 26.6569 6.5 25C6.5 23.3431 5.15685 22 3.5 22C1.84315 22 0.5 23.3431 0.5 25C0.5 26.6569 1.84315 28 3.5 28ZM6.5 69C6.5 70.6569 5.15685 72 3.5 72C1.84315 72 0.5 70.6569 0.5 69C0.5 67.3431 1.84315 66 3.5 66C5.15685 66 6.5 67.3431 6.5 69ZM3.5 116C5.15685 116 6.5 114.657 6.5 113C6.5 111.343 5.15685 110 3.5 110C1.84315 110 0.5 111.343 0.5 113C0.5 114.657 1.84315 116 3.5 116ZM94.5 3C94.5 4.65685 93.1569 6 91.5 6C89.8431 6 88.5 4.65685 88.5 3C88.5 1.34315 89.8431 0 91.5 0C93.1569 0 94.5 1.34315 94.5 3ZM91.5 50C93.1569 50 94.5 48.6569 94.5 47C94.5 45.3431 93.1569 44 91.5 44C89.8431 44 88.5 45.3431 88.5 47C88.5 48.6569 89.8431 50 91.5 50ZM94.5 91C94.5 92.6569 93.1569 94 91.5 94C89.8431 94 88.5 92.6569 88.5 91C88.5 89.3431 89.8431 88 91.5 88C93.1569 88 94.5 89.3431 94.5 91ZM91.5 28C93.1569 28 94.5 26.6569 94.5 25C94.5 23.3431 93.1569 22 91.5 22C89.8431 22 88.5 23.3431 88.5 25C88.5 26.6569 89.8431 28 91.5 28ZM94.5 69C94.5 70.6569 93.1569 72 91.5 72C89.8431 72 88.5 70.6569 88.5 69C88.5 67.3431 89.8431 66 91.5 66C93.1569 66 94.5 67.3431 94.5 69ZM91.5 116C93.1569 116 94.5 114.657 94.5 113C94.5 111.343 93.1569 110 91.5 110C89.8431 110 88.5 111.343 88.5 113C88.5 114.657 89.8431 116 91.5 116ZM50.5 3C50.5 4.65685 49.1569 6 47.5 6C45.8431 6 44.5 4.65685 44.5 3C44.5 1.34315 45.8431 0 47.5 0C49.1569 0 50.5 1.34315 50.5 3ZM47.5 50C49.1569 50 50.5 48.6569 50.5 47C50.5 45.3431 49.1569 44 47.5 44C45.8431 44 44.5 45.3431 44.5 47C44.5 48.6569 45.8431 50 47.5 50ZM50.5 91C50.5 92.6569 49.1569 94 47.5 94C45.8431 94 44.5 92.6569 44.5 91C44.5 89.3431 45.8431 88 47.5 88C49.1569 88 50.5 89.3431 50.5 91ZM47.5 28C49.1569 28 50.5 26.6569 50.5 25C50.5 23.3431 49.1569 22 47.5 22C45.8431 22 44.5 23.3431 44.5 25C44.5 26.6569 45.8431 28 47.5 28ZM50.5 69C50.5 70.6569 49.1569 72 47.5 72C45.8431 72 44.5 70.6569 44.5 69C44.5 67.3431 45.8431 66 47.5 66C49.1569 66 50.5 67.3431 50.5 69ZM47.5 116C49.1569 116 50.5 114.657 50.5 113C50.5 111.343 49.1569 110 47.5 110C45.8431 110 44.5 111.343 44.5 113C44.5 114.657 45.8431 116 47.5 116ZM28.5 3C28.5 4.65685 27.1569 6 25.5 6C23.8431 6 22.5 4.65685 22.5 3C22.5 1.34315 23.8431 0 25.5 0C27.1569 0 28.5 1.34315 28.5 3ZM25.5 50C27.1569 50 28.5 48.6569 28.5 47C28.5 45.3431 27.1569 44 25.5 44C23.8431 44 22.5 45.3431 22.5 47C22.5 48.6569 23.8431 50 25.5 50ZM28.5 91C28.5 92.6569 27.1569 94 25.5 94C23.8431 94 22.5 92.6569 22.5 91C22.5 89.3431 23.8431 88 25.5 88C27.1569 88 28.5 89.3431 28.5 91ZM25.5 28C27.1569 28 28.5 26.6569 28.5 25C28.5 23.3431 27.1569 22 25.5 22C23.8431 22 22.5 23.3431 22.5 25C22.5 26.6569 23.8431 28 25.5 28ZM28.5 69C28.5 70.6569 27.1569 72 25.5 72C23.8431 72 22.5 70.6569 22.5 69C22.5 67.3431 23.8431 66 25.5 66C27.1569 66 28.5 67.3431 28.5 69ZM25.5 116C27.1569 116 28.5 114.657 28.5 113C28.5 111.343 27.1569 110 25.5 110C23.8431 110 22.5 111.343 22.5 113C22.5 114.657 23.8431 116 25.5 116ZM116.5 3C116.5 4.65685 115.157 6 113.5 6C111.843 6 110.5 4.65685 110.5 3C110.5 1.34315 111.843 0 113.5 0C115.157 0 116.5 1.34315 116.5 3ZM113.5 50C115.157 50 116.5 48.6569 116.5 47C116.5 45.3431 115.157 44 113.5 44C111.843 44 110.5 45.3431 110.5 47C110.5 48.6569 111.843 50 113.5 50ZM116.5 91C116.5 92.6569 115.157 94 113.5 94C111.843 94 110.5 92.6569 110.5 91C110.5 89.3431 111.843 88 113.5 88C115.157 88 116.5 89.3431 116.5 91ZM113.5 28C115.157 28 116.5 26.6569 116.5 25C116.5 23.3431 115.157 22 113.5 22C111.843 22 110.5 23.3431 110.5 25C110.5 26.6569 111.843 28 113.5 28ZM116.5 69C116.5 70.6569 115.157 72 113.5 72C111.843 72 110.5 70.6569 110.5 69C110.5 67.3431 111.843 66 113.5 66C115.157 66 116.5 67.3431 116.5 69ZM113.5 116C115.157 116 116.5 114.657 116.5 113C116.5 111.343 115.157 110 113.5 110C111.843 110 110.5 111.343 110.5 113C110.5 114.657 111.843 116 113.5 116ZM72.5 3C72.5 4.65685 71.1569 6 69.5 6C67.8431 6 66.5 4.65685 66.5 3C66.5 1.34315 67.8431 0 69.5 0C71.1569 0 72.5 1.34315 72.5 3ZM69.5 50C71.1569 50 72.5 48.6569 72.5 47C72.5 45.3431 71.1569 44 69.5 44C67.8431 44 66.5 45.3431 66.5 47C66.5 48.6569 67.8431 50 69.5 50ZM72.5 91C72.5 92.6569 71.1569 94 69.5 94C67.8431 94 66.5 92.6569 66.5 91C66.5 89.3431 67.8431 88 69.5 88C71.1569 88 72.5 89.3431 72.5 91ZM69.5 28C71.1569 28 72.5 26.6569 72.5 25C72.5 23.3431 71.1569 22 69.5 22C67.8431 22 66.5 23.3431 66.5 25C66.5 26.6569 67.8431 28 69.5 28ZM72.5 69C72.5 70.6569 71.1569 72 69.5 72C67.8431 72 66.5 70.6569 66.5 69C66.5 67.3431 67.8431 66 69.5 66C71.1569 66 72.5 67.3431 72.5 69ZM69.5 116C71.1569 116 72.5 114.657 72.5 113C72.5 111.343 71.1569 110 69.5 110C67.8431 110 66.5 111.343 66.5 113C66.5 114.657 67.8431 116 69.5 116Z" fill="#DFE6EC"/>
</svg>
