<svg width="41" height="40" viewBox="0 0 41 40" fill="none" xmlns="http://www.w3.org/2000/svg">
<path d="M35.2778 7.20588V32.7941C35.2778 33.3792 35.0454 33.9402 34.6317 34.3539C34.2181 34.7676 33.657 35 33.0719 35H7.48371C6.89868 35 6.3376 34.7676 5.92392 34.3539C5.51024 33.9402 5.27783 33.3792 5.27783 32.7941V7.20588C5.27783 6.62085 5.51024 6.05977 5.92392 5.64609C6.3376 5.2324 6.89868 5 7.48371 5H33.0719C33.657 5 34.2181 5.2324 34.6317 5.64609C35.0454 6.05977 35.2778 6.62085 35.2778 7.20588ZM14.1014 16.4706H9.6896V30.5882H14.1014V16.4706ZM14.4984 11.6176C14.5007 11.2839 14.4373 10.953 14.3118 10.6438C14.1862 10.3346 14.001 10.0532 13.7666 9.81558C13.5323 9.57797 13.2534 9.38884 12.946 9.259C12.6386 9.12915 12.3086 9.06113 11.9749 9.05882H11.8955C11.2168 9.05882 10.566 9.32841 10.0861 9.80829C9.60625 10.2882 9.33666 10.939 9.33666 11.6176C9.33666 12.2963 9.60625 12.9471 10.0861 13.427C10.566 13.9069 11.2168 14.1765 11.8955 14.1765C12.2292 14.1847 12.5613 14.1271 12.8728 14.0069C13.1842 13.8867 13.4689 13.7063 13.7107 13.4761C13.9524 13.2458 14.1464 12.9702 14.2815 12.6649C14.4167 12.3597 14.4904 12.0308 14.4984 11.6971V11.6176ZM30.8661 22.0118C30.8661 17.7676 28.1661 16.1176 25.4837 16.1176C24.6055 16.0737 23.731 16.2607 22.9476 16.6602C22.1642 17.0596 21.4992 17.6575 21.019 18.3941H20.8955V16.4706H16.7484V30.5882H21.1602V23.0794C21.0964 22.3104 21.3387 21.5472 21.8343 20.9558C22.3299 20.3643 23.0389 19.9923 23.8072 19.9206H23.9749C25.3778 19.9206 26.419 20.8029 26.419 23.0265V30.5882H30.8308L30.8661 22.0118Z" fill="#8DC63F"/>
</svg>
