<svg width="19" height="18" viewBox="0 0 19 18" fill="none" xmlns="http://www.w3.org/2000/svg">
<g clip-path="url(#clip0_9_4355)">
<path d="M18.3415 3.57619L12.8825 9.00006L18.3415 14.4239C18.4402 14.2177 18.5001 13.9896 18.5001 13.7462V4.25397C18.5001 4.01044 18.4402 3.78245 18.3415 3.57619Z" fill="white"/>
<path d="M16.918 2.67212H2.08208C1.83856 2.67212 1.61057 2.73199 1.40431 2.83067L8.38152 9.77275C8.99844 10.3897 10.0017 10.3897 10.6186 9.77275L17.5958 2.83067C17.3895 2.73199 17.1615 2.67212 16.918 2.67212Z" fill="white"/>
<path d="M0.658555 3.57619C0.559871 3.78245 0.5 4.01044 0.5 4.25397V13.7462C0.5 13.9897 0.559871 14.2177 0.658555 14.4239L6.11758 9.00006L0.658555 3.57619Z" fill="white"/>
<path d="M12.1368 9.746L11.3643 10.5185C10.3363 11.5464 8.66372 11.5464 7.63579 10.5185L6.86333 9.746L1.40431 15.1699C1.61057 15.2686 1.83856 15.3284 2.08208 15.3284H16.918C17.1615 15.3284 17.3895 15.2686 17.5958 15.1699L12.1368 9.746Z" fill="white"/>
</g>
<defs>
<clipPath id="clip0_9_4355">
<rect width="18" height="18" fill="white" transform="translate(0.5)"/>
</clipPath>
</defs>
</svg>
