<svg width="41" height="40" viewBox="0 0 41 40" fill="none" xmlns="http://www.w3.org/2000/svg">
<path d="M33.5319 13.1999C33.5522 13.4937 33.5522 13.7876 33.5522 14.0842C33.5522 23.1207 26.6729 33.5425 14.0939 33.5425V33.5371C10.378 33.5425 6.73926 32.4781 3.61108 30.4712C4.1514 30.5362 4.69443 30.5687 5.23882 30.5701C8.31824 30.5728 11.3096 29.5395 13.7323 27.6369C10.8059 27.5814 8.2397 25.6733 7.34323 22.8877C8.36835 23.0855 9.42461 23.0448 10.4308 22.7699C7.24031 22.1253 4.94496 19.3222 4.94496 16.0667C4.94496 16.0369 4.94496 16.0085 4.94496 15.98C5.8956 16.5095 6.95999 16.8034 8.04876 16.8359C5.04381 14.8276 4.11755 10.8301 5.93216 7.70459C9.4043 11.9771 14.5272 14.5744 20.0266 14.8493C19.4754 12.474 20.2283 9.98505 22.005 8.31533C24.7594 5.72613 29.0915 5.85884 31.6807 8.6119C33.2123 8.30992 34.6802 7.74793 36.0236 6.95167C35.513 8.53471 34.4446 9.87942 33.0173 10.7339C34.3728 10.5741 35.6972 10.2112 36.9444 9.65733C36.0263 11.0332 34.8698 12.2316 33.5319 13.1999Z" fill="#8DC63F"/>
</svg>
