<svg width="41" height="40" viewBox="0 0 41 40" fill="none" xmlns="http://www.w3.org/2000/svg">
<path d="M20.3407 5.48389C12.1072 5.48389 5.40654 11.9378 5.40364 19.8694C5.4017 22.4058 6.09074 24.8813 7.39719 27.0616L5.27783 34.5161L13.1969 32.5158C15.3997 33.6681 17.849 34.2691 20.3349 34.2674H20.3407C28.5743 34.2674 35.2749 27.8126 35.2778 19.881C35.2798 16.039 33.7275 12.4226 30.9065 9.70421C28.0865 6.98485 24.3365 5.48485 20.3407 5.48389ZM20.3407 31.8374H20.3359C18.1082 31.8374 15.923 31.2607 14.0165 30.171L13.5617 29.9116L8.86428 31.0981L10.1185 26.6852L9.82332 26.2332C8.58354 24.3424 7.92357 22.1304 7.92461 19.8694C7.92751 13.2761 13.4978 7.91389 20.3456 7.91389C23.6611 7.91485 26.7782 9.16034 29.123 11.42C31.4678 13.6797 32.7578 16.6845 32.7559 19.88C32.753 26.4732 27.1836 31.8374 20.3398 31.8374H20.3407ZM27.1507 22.881C26.7772 22.702 24.9423 21.832 24.5998 21.711C24.2582 21.592 24.0094 21.53 23.7607 21.89C23.513 22.25 22.7969 23.06 22.5801 23.299C22.3614 23.539 22.1436 23.5681 21.7701 23.389C21.3965 23.209 20.1936 22.8297 18.7691 21.6045C17.6591 20.6523 16.9101 19.4755 16.6923 19.1145C16.4746 18.7555 16.6691 18.561 16.8559 18.382C17.0233 18.2223 17.2294 17.9629 17.4152 17.7529C17.6011 17.5429 17.663 17.3929 17.7888 17.1529C17.9127 16.9139 17.8507 16.7029 17.7569 16.5239C17.663 16.3429 16.9178 14.5739 16.6053 13.8549C16.3033 13.1542 15.9956 13.2481 15.7662 13.2365C15.5485 13.2268 15.3007 13.2239 15.0501 13.2239C14.8033 13.2239 14.3978 13.3139 14.0553 13.6739C13.7136 14.0339 12.7488 14.9029 12.7488 16.672C12.7488 18.442 14.0862 20.151 14.273 20.391C14.4598 20.63 16.9053 24.262 20.6494 25.82C21.5398 26.1887 22.2346 26.4103 22.7775 26.5768C23.6717 26.8507 24.4856 26.811 25.1282 26.719C25.8443 26.6155 27.3365 25.85 27.6462 25.011C27.9578 24.172 27.9578 23.452 27.8649 23.302C27.774 23.152 27.5243 23.062 27.1507 22.881Z" fill="#8DC63F"/>
</svg>
